<svg width="6" height="10" viewBox="0 0 6 10" fill="none" xmlns="http://www.w3.org/2000/svg">
<path d="M3.40833 4.45C2.36792 4.155 2.03333 3.85 2.03333 3.375C2.03333 2.83 2.49625 2.45 3.27083 2.45C4.08667 2.45 4.38917 2.875 4.41667 3.5H5.42958C5.3975 2.64 4.91625 1.85 3.95833 1.595V0.5H2.58333V1.58C1.69417 1.79 0.979167 2.42 0.979167 3.385C0.979167 4.54 1.85458 5.115 3.13333 5.45C4.27917 5.75 4.50833 6.19 4.50833 6.655C4.50833 7 4.28375 7.55 3.27083 7.55C2.32667 7.55 1.95542 7.09 1.905 6.5H0.896667C0.951667 7.595 1.70333 8.21 2.58333 8.415V9.5H3.95833V8.425C4.85208 8.24 5.5625 7.675 5.5625 6.65C5.5625 5.23 4.44875 4.745 3.40833 4.45Z" fill="#FFCA03"/>
</svg>
